<?xml version="1.0" encoding="utf-8"?>
<!-- Generator: Adobe Illustrator 21.0.0, SVG Export Plug-In . SVG Version: 6.00 Build 0)  -->
<svg version="1.1" id="Layer_1" xmlns="http://www.w3.org/2000/svg" xmlns:xlink="http://www.w3.org/1999/xlink" x="0px" y="0px"
	 viewBox="0 0 512 512" style="enable-background:new 0 0 512 512;" xml:space="preserve">
<path d="M301.9,164.6v4.4c0,1.2-1,2.2-2.2,2.2H293v3.3c0,1.8-1.5,3.3-3.3,3.3H181.2c-1.8,0-3.3-1.5-3.3-3.3v-3.3h-6.6
	c-1.2,0-2.2-1-2.2-2.2v-4.4c0-0.9,0.5-1.7,1.4-2l64.2-24.4c0.5-0.2,1.2-0.2,1.7,0l64.2,24.4C301.3,162.9,301.9,163.7,301.9,164.6z
	 M295.2,248.7H175.6c-3.7,0-6.6,3-6.6,6.6v4.4c0,1.2,1,2.2,2.2,2.2h128.4c1.2,0,2.2-1,2.2-2.2v-4.4
	C301.9,251.7,298.9,248.7,295.2,248.7z M191.1,182.3v53.1h-10c-1.8,0-3.3,1.5-3.3,3.3v5.5H293v-5.5c0-1.8-1.5-3.3-3.3-3.3h-10v-53.1
	H262v53.1h-17.7v-53.1h-17.7v53.1h-17.7v-53.1H191.1z"/>
</svg>
